<?xml version="1.0" encoding="UTF-8" standalone="no"?>
<svg
   xmlns:dc="http://purl.org/dc/elements/1.1/"
   xmlns:cc="http://creativecommons.org/ns#"
   xmlns:rdf="http://www.w3.org/1999/02/22-rdf-syntax-ns#"
   xmlns:svg="http://www.w3.org/2000/svg"
   xmlns="http://www.w3.org/2000/svg"
   xmlns:sodipodi="http://sodipodi.sourceforge.net/DTD/sodipodi-0.dtd"
   xmlns:inkscape="http://www.inkscape.org/namespaces/inkscape"
   width="210mm"
   height="297mm"
   viewBox="0 0 210 297"
   version="1.1"
   id="svg8"
   sodipodi:docname="Agreement Icon_.svg"
   inkscape:version="1.0.1 (c497b03c, 2020-09-10)">
  <defs
     id="defs2">
    <inkscape:path-effect
       effect="powermask"
       id="path-effect2945"
       is_visible="true"
       lpeversion="1"
       uri="#mask-powermask-path-effect2945"
       invert="false"
       hide_mask="false"
       background="true"
       background_color="#ffffffff" />
    <rect
       x="47.826935"
       y="95.335701"
       width="10.627834"
       height="11.968592"
       id="rect2935" />
    <rect
       x="111.4731"
       y="75.441391"
       width="22.519817"
       height="24.208805"
       id="rect2433" />
    <rect
       x="71.50042"
       y="264.60785"
       width="49.543598"
       height="41.098667"
       id="rect2410" />
    <inkscape:path-effect
       effect="powermask"
       id="path-effect2320"
       is_visible="true"
       lpeversion="1"
       uri="#mask-powermask-path-effect2320"
       invert="false"
       hide_mask="false"
       background="false"
       background_color="#ffffffff" />
    <marker
       style="overflow:visible"
       id="marker2066"
       refX="0"
       refY="0"
       orient="auto"
       inkscape:stockid="Arrow1Lstart"
       inkscape:isstock="true">
      <path
         transform="matrix(0.8,0,0,0.8,10,0)"
         style="fill-rule:evenodd;stroke:#000000;stroke-width:1pt"
         d="M 0,0 5,-5 -12.5,0 5,5 Z"
         id="path2064" />
    </marker>
    <marker
       style="overflow:visible"
       id="marker2050"
       refX="0"
       refY="0"
       orient="auto"
       inkscape:stockid="Arrow1Lstart"
       inkscape:isstock="true">
      <path
         transform="matrix(0.8,0,0,0.8,10,0)"
         style="fill-rule:evenodd;stroke:#000000;stroke-width:1pt"
         d="M 0,0 5,-5 -12.5,0 5,5 Z"
         id="path2048" />
    </marker>
    <marker
       style="overflow:visible"
       id="Arrow1Lstart"
       refX="0"
       refY="0"
       orient="auto"
       inkscape:stockid="Arrow1Lstart"
       inkscape:isstock="true">
      <path
         transform="matrix(0.8,0,0,0.8,10,0)"
         style="fill-rule:evenodd;stroke:#000000;stroke-width:1pt"
         d="M 0,0 5,-5 -12.5,0 5,5 Z"
         id="path1778" />
    </marker>
    <mask
       maskUnits="userSpaceOnUse"
       id="mask-powermask-path-effect2320">
      <circle
         style="fill:#ff0000;fill-rule:evenodd;stroke-width:0.482714"
         id="circle2318"
         cx="137.39427"
         cy="104.16444"
         r="67.5" />
    </mask>
    <mask
       maskUnits="userSpaceOnUse"
       id="mask-powermask-path-effect2945">
      <path
         id="mask-powermask-path-effect2945_box"
         style="fill:#ffffff;fill-opacity:1"
         d="M 36.771877,87.83387 H 154.96915 V 238.97743 H 36.771877 Z" />
      <text
         xml:space="preserve"
         id="text2943"
         style="font-size:3.52777999999999992px;line-height:2.4;font-family:'Microsoft Sans Serif';-inkscape-font-specification:'Microsoft Sans Serif';white-space:pre;shape-inside:url(#rect2935);"
         transform="matrix(7.6286193,0,0,6.542491,-318.46933,-546.8447)"><tspan
           x="47.826172"
           y="100.54207"><tspan>A</tspan></tspan></text>
    </mask>
    <filter
       id="mask-powermask-path-effect2945_inverse"
       inkscape:label="filtermask-powermask-path-effect2945"
       style="color-interpolation-filters:sRGB"
       height="100"
       width="100"
       x="-50"
       y="-50">
      <feColorMatrix
         id="mask-powermask-path-effect2945_primitive1"
         values="1"
         type="saturate"
         result="fbSourceGraphic" />
      <feColorMatrix
         id="mask-powermask-path-effect2945_primitive2"
         values="-1 0 0 0 1 0 -1 0 0 1 0 0 -1 0 1 0 0 0 1 0 "
         in="fbSourceGraphic" />
    </filter>
    <clipPath
       clipPathUnits="userSpaceOnUse"
       id="clipPath3031">
      <path
         id="path3033"
         style="fill:#ff0000;fill-opacity:1;fill-rule:nonzero;stroke:none;stroke-width:0.266643"
         d="m 282.04921,165.0026 -0.40639,56.62954 9.41803,1.71133 0.40639,-56.62953 z" />
    </clipPath>
    <clipPath
       clipPathUnits="userSpaceOnUse"
       id="clipPath3042">
      <path
         id="path3044"
         style="fill:#ff0000;fill-opacity:1;fill-rule:nonzero;stroke:none;stroke-width:0.264583"
         d="m 274.26236,124.36902 -0.4107,7.52374 4.80652,0.26238 0.41069,-7.52374 z" />
    </clipPath>
    <clipPath
       clipPathUnits="userSpaceOnUse"
       id="clipPath3053">
      <path
         id="path3055"
         style="fill:#ff0000;fill-opacity:1;fill-rule:nonzero;stroke:none;stroke-width:0.264583"
         d="m 262.98473,150.34155 -0.15487,1.15236 4.76462,0.64034 0.15487,-1.15236 z" />
    </clipPath>
    <clipPath
       clipPathUnits="userSpaceOnUse"
       id="clipPath3162">
      <path
         id="path3164"
         style="fill:#ff0000;fill-opacity:1;fill-rule:nonzero;stroke:none;stroke-width:0.264583"
         d="m 272.13668,71.221424 c -1.03341,-0.01339 -2.07211,0.07781 -3.10523,0.03049 -0.0603,-0.0028 -0.12057,-0.006 -0.18087,-0.0088 -0.0204,0.715989 -0.0413,1.433303 -0.0579,2.18953 1.1675,-0.0019 2.3355,-0.0045 3.5047,-0.01447 0.56637,-0.517104 1.02322,-0.68957 0.97308,-0.09973 -0.003,0.0304 -0.007,0.05773 -0.009,0.08785 0.65567,-0.0091 1.31154,-0.01902 1.96784,-0.03824 0.22498,-2.65e-4 1.25757,-0.0029 2.0252,-0.0062 0.37171,-0.07412 0.75867,-0.134512 1.15496,-0.181383 0.0891,-0.04196 0.1746,-0.0803 0.25789,-0.115755 -0.0549,-0.170833 -0.11443,-0.336947 -0.17105,-0.506431 -1.74252,-0.554884 -3.46673,-1.080497 -5.32784,-1.279506 -0.34279,-0.03665 -0.68699,-0.0529 -1.03148,-0.05736 z m 6.53037,1.843299 c 0.009,0.02778 0.018,0.05539 0.0268,0.0832 0.40685,-0.04045 0.82249,-0.06395 1.2423,-0.07183 -0.004,-0.02827 -0.0154,-0.04943 -0.0243,-0.07286 -0.0481,-0.01394 -0.0932,-0.02625 -0.14158,-0.04031 -0.13433,-0.0421 -0.26628,-0.08467 -0.39997,-0.127124 -0.19495,0.03478 -0.43289,0.113763 -0.70332,0.228928 z m 0.0268,0.0832 c -0.0957,0.0095 -0.19005,0.02135 -0.28474,0.03256 -0.11004,0.05186 -0.23207,0.117875 -0.34983,0.1788 0.29731,-5.29e-4 0.39891,-0.0024 0.70278,-0.0021 -0.022,-0.07016 -0.0459,-0.139277 -0.0682,-0.209288 z m 2.53008,0.232545 c 0.003,0.0019 0.007,0.0042 0.0103,0.0062 0.005,1.45e-4 0.007,2.64e-4 0.0119,5.29e-4 -0.007,-0.0024 -0.0148,-0.0044 -0.0222,-0.0067 z m -3.97132,0.425813 c -0.91794,0.544134 -1.9436,1.245449 -2.87374,1.94355 -0.43926,0.954031 -0.79674,2.127914 -1.05833,3.331064 1.94286,-1.113737 4.00796,-2.135645 5.379,-3.680396 -0.31888,-0.522865 -0.71699,-1.0018 -1.21594,-1.425237 -0.0775,-0.06577 -0.15447,-0.119808 -0.23099,-0.168981 z m -4.26177,10.468612 c 0.003,0.0024 0.0135,0.01209 0.0383,0.02997 0.0127,0.0092 0.33165,0.19289 0.56327,0.327629 -0.003,-0.0045 -0.005,-0.0089 -0.008,-0.01344 -0.22305,-0.116517 -0.60455,-0.359783 -0.59378,-0.344165 z m 0.0858,0.523997 c 0.0703,0.192434 0.15885,0.3756 0.26252,0.550873 0.30226,0.169984 0.61171,0.328205 0.92397,0.481624 -0.15078,-0.272021 -0.30088,-0.544195 -0.45423,-0.815454 -0.24665,-0.07354 -0.49954,-0.14955 -0.73226,-0.217043 z m 8.56797,14.920537 c -0.19693,0.06393 -0.4,0.102902 -0.60306,0.112654 -0.0834,0.09822 -0.17095,0.192049 -0.27131,0.272849 -2.1495,1.73098 -2.78505,1.36206 -5.45446,1.35806 -0.90691,-0.11862 -1.47968,-0.18697 -1.96887,-0.2527 -0.84558,0.3242 -1.69283,0.64262 -2.53368,0.90899 3e-5,0.2632 0,0.52642 0,0.78961 0.35468,0.33073 0.73597,0.65585 1.14308,0.97204 0.20436,0.0749 0.35277,0.19265 0.44545,0.33228 0.243,0.17583 0.49205,0.34921 0.75343,0.51676 2.4171,1.5493 7.00138,-2.20918 8.49974,-5.010543 -0.003,3.2e-5 -0.007,-3.2e-5 -0.0103,0 z m -10.83138,3.189463 c -0.21423,-0.19976 -0.41793,-0.40075 -0.61394,-0.60306 -0.26934,0.0769 -0.53771,0.14494 -0.8051,0.20774 0.10258,0.48306 0.1343,0.92631 0.0889,1.32292 0.34552,0.001 0.84815,0.007 1.05577,0.005 0.0888,-7.9e-4 0.17746,-0.006 0.26612,-0.0114 0.003,-0.30696 0.007,-0.61387 0.008,-0.92088 z m -0.61394,-0.60306 c 0.2041,-0.0583 0.40897,-0.12162 0.61394,-0.18655 -3e-5,-0.052 3e-5,-0.10404 0,-0.15606 -0.24455,0.0514 -0.50646,0.0667 -0.78756,0.0403 -0.023,2.6e-4 -0.0458,2.6e-4 -0.0687,5.2e-4 -0.013,10e-4 -0.0254,0.003 -0.0382,0.004 0.0917,0.0992 0.18476,0.1987 0.28059,0.29766 z m -16.26515,2.73678 c -2.05351,0.0192 -4.10737,0.0661 -6.15829,0.17209 -1.27515,0.0659 -5.46068,0.54576 -6.71017,0.73639 -0.15222,0.0232 -0.28835,0.10816 -0.43252,0.16226 -0.92024,0.34509 -1.4827,-0.0982 -1.42732,-0.61857 -0.3565,0.0777 -0.71974,0.12393 -1.09088,0.12661 -0.0533,2.6e-4 -0.1058,-0.003 -0.15864,-0.005 0,0.19662 -0.0584,0.33084 -0.16073,0.44649 0.0182,0.12447 0.092,0.32834 -0.0222,0.33951 -0.0249,0.002 -0.0452,0.005 -0.0698,0.008 -0.0262,0.12243 -0.0614,0.2391 -0.11316,0.2961 -0.0393,0.0433 -0.10586,0.11751 -0.15918,0.17725 0.21336,0.73975 0.27774,1.52489 0.24133,2.45877 0,0.1194 -0.01,0.22894 -0.0243,0.33383 0.0201,0.18692 0.0292,0.38132 0.0305,0.58084 0.003,2e-5 0.004,-2e-5 0.006,0 0,-0.0112 0,-0.0308 0.003,-0.0408 0,-0.0136 0.003,0.0273 0.005,0.0408 -0.003,-2e-5 -0.004,2e-5 -0.006,0 -0.003,0.0513 -0.003,0.11775 -0.006,0.18707 0,0.0241 0,0.047 0,0.0713 0,0.016 -0.003,0.0312 -0.004,0.047 -0.005,0.15965 -0.0106,0.2833 -0.0135,0.40152 0.3199,0.49151 0.65407,0.98812 0.89246,1.4609 0.0708,0.009 0.14412,0.0216 0.21341,0.0289 0.006,0.0951 0.0246,0.32617 0.0444,0.61908 0.069,0.25261 0.0893,0.49267 0.0388,0.71468 0.0161,0.33367 0.0265,0.65375 0.0222,0.94207 0.0702,0.18761 0.11599,0.36934 0.14211,0.54673 0.29041,-0.006 0.58081,-0.0148 0.87124,-0.0196 0.0719,-10e-4 -0.006,0.14442 -0.006,0.21652 0,0.076 0,0.15193 0,0.22789 0.003,3e-5 0.004,-2e-5 0.006,0 0.0106,0.50765 0.0111,0.99065 0.007,1.46141 0,0.0523 0,0.0797 0,0.12661 0.0183,0.18194 0.0209,0.37838 0.004,0.59376 -0.0164,0.20489 -0.0236,0.35024 -0.0362,0.53434 -0.0362,0.8952 -0.10102,1.71784 -0.19378,2.4691 0.4418,-0.008 0.88366,-0.0179 1.32548,-0.0243 0.0489,-7.9e-4 -0.008,0.0981 -0.009,0.14728 -0.003,0.0794 0,0.15884 -0.003,0.23822 0.003,0.002 0.004,0.002 0.007,0.004 -0.003,-6e-5 -0.005,6e-5 -0.007,0 0,0.0716 -0.003,0.14333 -0.003,0.21497 0.0193,0.027 0.0308,0.0487 0.0164,0.0527 -0.006,0.002 -0.0111,0.004 -0.0169,0.005 -1e-4,0.0315 0,0.0631 0,0.0946 0,0.78488 0.0116,1.31916 0.008,1.45004 0.003,-4e-5 0.005,3e-5 0.007,0 0.049,-7.9e-4 -0.005,0.0961 -0.008,0.14728 0.003,0.15665 0.005,0.29238 0.007,0.46974 -0.004,-1.3e-4 -0.008,-2.7e-4 -0.0124,-5.3e-4 -2.1e-4,0.0487 -0.003,0.0975 -0.003,0.14624 0,0.30734 0.004,0.61457 0.006,0.92191 0,0.16651 0,0.3332 0.003,0.49971 0.003,-2e-5 0.004,2e-5 0.006,0 0.0691,-7.9e-4 -0.008,0.13822 -0.009,0.20722 0,0.0701 0,0.11026 0,0.17312 0.003,10e-5 0.005,-1e-4 0.008,0 0.0808,0.003 0.0835,0.24233 0.003,0.24133 -0.004,-6e-5 -0.008,-5.3e-4 -0.0124,-5.3e-4 -0.003,0.30433 0,0.62257 0.003,0.9648 0,1e-5 0.003,-2e-5 0.003,0 0.11309,0.002 0.0793,0.14129 0.0367,0.29042 0.14806,0.0705 0.13486,0.53743 -0.0367,0.53743 -0.007,0 -0.0148,0 -0.0222,0 -0.0116,1.06733 -0.009,2.62759 -0.009,3.54914 h 41.89873 v -15.8843 c -1.17851,0.26339 -2.4868,0.36576 -3.80029,0.31006 -2.21055,0.0949 -4.41556,-0.24685 -5.99292,-1.07642 -1.99446,0.6123 -2.21152,0.69182 -2.26447,-1.37925 -0.0779,-0.109 -0.18827,-0.40209 -0.22375,-0.53846 -0.4046,-1.55489 -0.70911,-3.1339 -1.0635,-4.70101 0.28303,-0.77336 0.48382,-1.38494 0.62529,-1.87585 -0.18528,-0.22073 -0.34634,-0.47131 -0.509,-0.71986 -0.0674,-10e-4 -0.1347,-0.003 -0.20206,-0.005 -0.0887,0.18097 -0.14642,0.34835 -0.14367,0.45992 0.007,0.2707 0.25662,1.05171 0.17933,0.7922 -0.12533,-0.4205 -0.25778,-0.83951 -0.38706,-1.25936 -0.15951,-0.003 -0.31901,-0.007 -0.47852,-0.0103 -1.02746,0.65467 -2.99564,0.70062 -6.27354,-0.16434 -0.003,-5e-5 -0.006,6e-5 -0.008,0 -0.0828,0.0698 -0.21135,0.0737 -0.46199,-0.006 -1.13083,-0.0142 -2.26168,-0.0273 -3.39257,-0.0434 -0.54594,-0.008 -1.09169,-0.0233 -1.63761,-0.0367 -0.61978,0.17527 -1.01216,0.19603 -1.37924,-0.0274 -0.50144,-0.008 -1.00286,-0.0139 -1.50432,-0.009 z m 16.1985,1.02888 c 0.16378,0.19509 0.34603,0.36722 0.57103,0.48679 0.0265,0.014 0.0541,0.0321 0.0806,0.0465 0,-0.37357 -0.003,-0.74729 0.005,-1.12086 0,-0.0358 0,-0.0717 0,-0.10749 -0.15949,-0.004 -0.31901,-0.007 -0.47853,-0.0103 -0.0428,0.19956 -0.0997,0.42922 -0.17931,0.70538 z m -29.15221,15.18047 c 0,-10e-4 -3e-5,-0.002 0,-0.004 -0.27842,-0.1443 -0.2689,-0.0953 -0.19175,-0.002 0.0639,0.002 0.12783,0.004 0.19175,0.005 z m -1.96578,-5.97483 c -0.0606,0.001 -0.12128,0.003 -0.1819,0.004 -0.0183,0.0882 -0.0421,0.14964 -0.0749,0.16433 -0.0164,0.007 -0.0321,0.0133 -0.0486,0.0207 0.08,0.0807 0.1312,0.15563 0.12969,0.21911 0.0663,10e-4 0.13264,0.002 0.19897,0.003 0.005,-0.13389 -0.003,-0.27117 -0.0233,-0.41135 z m -0.1819,0.004 c 0.0262,-0.12679 0.0365,-0.32515 0.0398,-0.55087 -0.0613,-0.16373 -0.1414,-0.3317 -0.23876,-0.50333 -0.0364,0.0442 -0.0759,0.0878 -0.12145,0.12971 -0.18187,0.16742 -0.36907,0.32655 -0.55914,0.48162 0.13658,0.13859 0.35753,0.29683 0.55036,0.4501 0.10972,-0.002 0.21947,-0.005 0.32919,-0.007 z m -0.87955,-0.44287 c -0.014,-0.0142 -0.0325,-0.0297 -0.0444,-0.0434 -0.2023,-0.23364 -0.67214,-0.98975 -0.62581,-0.68419 0.0214,0.14087 0.0468,0.28109 0.0698,0.42168 0.14732,0.14179 0.2794,0.29843 0.39534,0.47077 0.069,-0.054 0.13718,-0.10938 0.20513,-0.16485 z m -0.20513,0.16485 c -0.093,0.0728 -0.1869,0.14431 -0.28165,0.21446 0.006,0.0314 0.0124,0.0626 0.018,0.0941 0.14674,-0.003 0.29353,-0.007 0.44027,-0.0104 -0.0536,-0.10449 -0.11306,-0.2035 -0.17672,-0.29817 z m -0.26355,0.30851 c -0.0507,10e-4 -0.10131,0.002 -0.15195,0.003 -0.0955,0.0689 -0.19066,0.13819 -0.28782,0.20464 0.16563,-0.004 0.32576,-0.003 0.48006,0.004 -0.0132,-0.0705 -0.0275,-0.14079 -0.0403,-0.21136 z m -0.43977,0.20774 c -0.41195,0.0102 -0.85354,0.0489 -1.32501,0.11679 0.37381,0.006 0.74761,0.0116 1.12139,0.0176 0.0679,-0.0448 0.1365,-0.0885 0.20362,-0.13436 z m -1.32501,0.11679 c -2.01501,-0.0329 -4.03002,-0.0639 -6.04509,-0.0935 -0.27977,0.01 -0.55946,0.0194 -0.83923,0.0289 -0.0348,0.24595 -0.0692,0.49217 -0.10644,0.73742 0.55956,0.20491 1.11323,0.40467 1.66759,0.60203 1.87817,-0.53608 3.7452,-1.04767 5.32317,-1.27485 z m -6.88432,-0.0646 c 0.003,-0.0136 0.004,-0.0272 0.006,-0.0408 -0.46389,-0.007 -0.92776,-0.0143 -1.39165,-0.0202 0.0587,0.0313 0.12483,0.0691 0.18449,0.10129 0.4005,-0.0136 0.80098,-0.0266 1.20148,-0.0403 z m -1.20147,0.0403 c -0.25268,0.009 -0.50541,0.0163 -0.75809,0.0248 0.41762,0.14928 0.84283,0.30347 1.26915,0.4594 0.15489,0.006 0.30742,0.0167 0.45064,0.0439 -0.33972,-0.19317 -0.65061,-0.3605 -0.9617,-0.52814 z m -0.75809,0.0248 c -0.12972,-0.0464 -0.25659,-0.0901 -0.38499,-0.13539 -0.15299,-0.002 -0.30592,-0.003 -0.4589,-0.005 0.0496,0.0546 0.0957,0.10775 0.14624,0.16278 0.23254,-0.008 0.46511,-0.0149 0.69765,-0.0227 z m -0.84389,-0.14004 c -0.0699,-0.077 -0.13819,-0.15336 -0.20619,-0.22945 -0.20248,-0.0692 -0.39327,-0.12847 -0.59065,-0.19327 -0.27871,0.13571 -0.55756,0.27127 -0.83664,0.40618 0.54454,0.005 1.08897,0.0106 1.63348,0.0165 z m -0.79684,-0.42272 c 0.0976,-0.0475 0.19544,-0.0945 0.293,-0.14211 -0.19405,-0.22242 -0.3791,-0.44041 -0.55708,-0.65474 -0.12677,-0.0589 -0.24276,-0.11212 -0.36484,-0.16846 -0.11125,0.004 -0.22227,0.005 -0.33329,0.006 0,0.2179 0,0.43581 0.003,0.6537 0.30904,0.0919 0.63439,0.1983 0.96068,0.30541 z m -0.26408,-0.79685 c 0.29911,0.13908 0.61984,0.29208 0.96067,0.45837 0.32152,-0.15741 0.64421,-0.31251 0.96531,-0.47077 -0.56457,-0.0317 -1.1184,-0.0879 -1.65828,-0.1757 -0.13742,0.004 -0.27477,0.006 -0.41238,0.0114 0.0478,0.0588 0.0952,0.11719 0.14468,0.17673 z m 1.92598,-0.0124 c 0.69154,0.0388 1.39938,0.0404 2.1146,0.0253 0.0109,-0.0818 0.0228,-0.16313 0.0336,-0.24494 -0.45918,-0.0399 -0.91588,-0.0951 -1.36633,-0.16899 -0.26083,0.12917 -0.52081,0.25994 -0.78187,0.38861 z m 2.1482,-0.21962 c 2.12995,0.18524 4.29075,0.004 5.91902,-0.59014 -1.22454,-0.22943 -2.68745,-0.22645 -4.22973,-0.14677 -0.54705,0.0618 -1.08408,0.1154 -1.61126,0.16175 -0.0254,0.19179 -0.0528,0.38345 -0.078,0.57516 z m 5.91902,-0.59014 c 0.75465,0.14138 1.42023,0.36915 1.95284,0.72657 0.1079,0.011 0.21606,0.021 0.32298,0.0341 0.0249,-0.099 0.0839,-0.32574 0.15401,-0.60875 -0.53724,-0.0667 -1.23116,-0.16057 -2.09291,-0.28215 -0.10893,0.0458 -0.22251,0.0885 -0.33692,0.13023 z m 0.33692,-0.13023 c 0.10102,-0.0425 0.1991,-0.0868 0.29507,-0.13281 -0.51025,-0.0876 -1.02042,-0.17619 -1.53064,-0.26406 -0.28173,0.0295 -0.56796,0.063 -0.85371,0.0956 0.77452,0.11576 1.43637,0.20915 2.08928,0.30127 z m 0.29507,-0.13281 c 0.60446,0.10379 1.2088,0.20878 1.81335,0.31213 0.004,5.3e-4 0.004,0.001 0.008,0.002 0.0469,-0.19079 0.0956,-0.40128 0.14417,-0.61495 -0.0494,-0.0483 -0.0967,-0.0959 -0.14883,-0.14469 -0.008,-0.008 -0.0167,-0.0142 -0.0249,-0.0217 -0.32949,-0.002 -0.67051,0.004 -1.02373,0.0196 -0.2319,0.1644 -0.48844,0.31392 -0.76843,0.44803 z m 1.96577,-0.30127 c 0.27001,0.26401 0.49906,0.5204 0.69041,0.76894 0.26098,0.0544 0.26789,0.0711 0.0403,0.0522 0.13197,0.17555 0.2458,0.34731 0.34105,0.51521 0.11191,-0.13602 0.1811,-0.283 0.21653,-0.43873 -0.006,-0.12956 -0.0127,-0.2493 -0.0201,-0.37207 -0.0503,-0.0361 -0.19431,-0.30892 -0.36174,-0.63872 -0.27662,-0.0271 -0.56448,-0.0456 -0.86764,-0.0522 -0.0127,0.0574 -0.0257,0.10791 -0.0388,0.16537 z m 0.90641,-0.11317 c 0.0838,0.008 0.17055,0.014 0.25167,0.0243 -0.0479,-0.12354 -0.10202,-0.24853 -0.16639,-0.37621 -0.0937,-0.0123 -0.18593,-0.0228 -0.28216,-0.0382 0.0773,0.15726 0.13338,0.26509 0.19688,0.39016 z m -0.19688,-0.39016 c -0.176,-0.35821 -0.38248,-0.78212 -0.61547,-1.26039 -3e-5,0.002 0,0.007 0,0.009 -0.0243,-0.002 -0.0486,-0.005 -0.0728,-0.007 -0.0206,0.0735 -0.0439,0.14584 -0.0708,0.21653 0.0788,0.0175 0.15796,0.0332 0.23667,0.0512 0.0851,0.0194 0.0373,0.40396 -0.0553,0.88315 0.19722,0.0416 0.39008,0.0777 0.57827,0.108 z m -0.61547,-1.26039 c 0,-0.0271 0.004,-0.11449 0.005,-0.16226 -0.01,-0.0151 -0.0196,-0.0303 -0.0295,-0.0455 -0.007,0.0377 -0.0135,0.0757 -0.0222,0.11266 0.0169,0.0348 0.0298,0.0607 0.0465,0.0951 z m 1.06402,1.67484 c 0.004,0.0106 0.007,0.0209 0.0114,0.0315 -0.004,-0.013 -0.005,-0.0175 -0.008,-0.031 0,-1.3e-4 -0.003,-2.6e-4 -0.003,-5.3e-4 z m 0.0114,0.0315 c 0.0384,0.13551 0.0644,0.23652 0.0847,0.32298 -0.003,-0.0252 -0.003,-0.0583 -0.005,-0.0827 -0.0214,-0.0787 -0.0497,-0.15934 -0.0801,-0.24029 z m -0.97774,-6.72879 c -0.10824,0.10871 -0.25022,0.21159 -0.40876,0.34623 0.11835,-0.0135 0.23218,-0.0277 0.35812,-0.0403 0.0246,-0.11506 0.0385,-0.22312 0.0506,-0.30592 z m -0.40823,0.34675 c -0.0193,0.002 -0.0352,0.004 -0.0543,0.007 0.004,0.0109 0.007,0.0221 0.0114,0.0331 0.014,-0.0123 0.0291,-0.0281 0.0429,-0.0398 z m 0.33692,9.89138 c -0.77065,0.39229 -1.50008,0.77149 -2.1859,1.13533 0.80806,-0.004 1.6161,-0.004 2.42413,-0.006 -0.0822,-0.37591 -0.16203,-0.75213 -0.23823,-1.12913 z m 0.23823,1.12914 c 0.009,0.0412 0.0183,0.0823 0.0274,0.1235 0.0198,-0.002 0.0381,-0.003 0.0579,-0.005 0.0448,-0.04 0.0935,-0.0784 0.13589,-0.11937 -0.0737,1.5e-4 -0.14745,2.7e-4 -0.22117,5.3e-4 z m 0.0274,0.1235 c -1.16787,0.0882 -2.24211,0.1907 -3.23752,0.30231 -0.14259,0.0769 -0.28395,0.15342 -0.42273,0.22893 0.0206,0.005 0.0421,0.0107 0.0625,0.0155 1.06881,-0.053 2.13675,-0.11402 3.20392,-0.19017 0.14269,-0.10248 0.27673,-0.20847 0.40256,-0.31781 -0.003,-0.0129 -0.006,-0.0258 -0.009,-0.0388 z m -0.39378,0.35657 c -0.22233,0.15969 -0.46204,0.31089 -0.71829,0.45423 0.48329,-0.0538 0.86516,-0.20582 1.11776,-0.48265 -0.13311,0.01 -0.26631,0.0189 -0.39947,0.0284 z m -0.71829,0.45423 c -0.66252,0.0738 -1.5153,-0.037 -2.48563,-0.26406 -0.0336,0.002 -0.0672,0.004 -0.10078,0.005 -1.49839,0.81599 -2.74214,1.53674 -3.83027,2.19004 1.80676,-0.25046 4.51231,-0.86588 6.41668,-1.93114 z m -2.12545,-0.50849 c 0.25521,-0.13762 0.51837,-0.27763 0.786,-0.41962 -0.74608,0.004 -1.49204,0.007 -2.23811,0.0114 -0.0398,0.0116 -0.0819,0.0258 -0.12145,0.0372 -0.13941,0.0557 -0.2786,0.11181 -0.4191,0.16588 0.36891,0.11369 0.72962,0.21902 1.07696,0.31109 0.29443,-0.0365 0.60529,-0.0711 0.9157,-0.10593 z m -1.99266,-0.20516 c -0.0297,-0.009 -0.0585,-0.0176 -0.0883,-0.0269 -1.08075,0.2952 -2.07,0.51302 -2.96212,0.66921 0.47697,-0.017 0.95404,-0.0337 1.43092,-0.0517 0.54499,-0.18916 1.08545,-0.38508 1.61954,-0.59066 z m -1.61954,0.59066 c -0.20211,0.0702 -0.40531,0.13877 -0.60822,0.20774 0.47511,-0.0824 0.99041,-0.16342 1.52654,-0.24339 -0.30607,0.0122 -0.6122,0.0241 -0.91832,0.0356 z m -0.60822,0.20774 c -0.83712,0.14515 -1.57343,0.29133 -2.23552,0.43305 -0.0257,0.11721 -0.0525,0.23404 -0.0796,0.35088 0.76936,-0.26506 1.54382,-0.52176 2.31511,-0.78393 z m -2.23552,0.43305 c 0.0283,-0.12908 0.0545,-0.25859 0.0811,-0.38809 -1.26712,0.16097 -2.29431,0.20478 -3.07888,0.21756 0.14888,0.20845 0.30263,0.41621 0.46665,0.6227 0.0333,0.042 0.069,0.0813 0.10541,0.11989 0.65042,-0.16558 1.43378,-0.35973 2.4257,-0.57206 z m 0.0811,-0.38809 c 0.41854,-0.0532 0.86056,-0.11853 1.3317,-0.20102 -0.43339,0.0154 -0.86677,0.0317 -1.30016,0.047 -0.0103,0.0514 -0.0209,0.10265 -0.0315,0.15399 z m 4.29382,-0.87023 c 0.16883,-0.0461 0.33401,-0.0889 0.50744,-0.13901 0.0302,-0.0121 0.0602,-0.0245 0.0904,-0.0367 -0.37293,0.002 -0.74586,0.004 -1.11879,0.006 0.1733,0.0564 0.35112,0.11722 0.52091,0.17002 z m -9.23822,1.20974 c -0.009,0.007 -0.0177,0.0142 -0.0243,0.0222 0,0 0,5.3e-4 0,5.3e-4 -0.006,0.0353 -0.0167,0.0841 -0.0217,0.1173 0.0329,0.16354 0.27842,0.43934 0.72604,0.88987 0.007,-0.001 0.014,-0.002 0.0206,-0.003 -0.25006,-0.34827 -0.48363,-0.69089 -0.70022,-1.02681 z m 0.90744,0.37879 c 0.003,0.20395 0.003,0.4079 0.004,0.61185 0.0243,-0.005 0.0522,-0.0113 0.0775,-0.0165 -0.027,-0.19872 -0.0517,-0.38572 -0.0812,-0.59532 z m 0.1664,7.39645 c -0.0377,0.0364 -0.0613,0.0602 -0.0915,0.0889 0,0.0322 0.003,0.0644 0.004,0.0966 0.0318,-0.0197 0.0467,-0.0287 0.0868,-0.0537 0,-0.0446 0,-0.0899 0,-0.13178 z m -0.003,0.15193 c -0.0119,0.0172 -0.0236,0.0316 -0.0357,0.0486 0.0101,-0.004 0.0182,-0.0106 0.0326,-0.0108 0,-2e-5 0.003,1e-5 0.003,0 1.3e-4,-0.0132 -1.3e-4,-0.0249 0,-0.0377 z m -0.0775,0.1049 c -0.003,0.003 -0.004,0.005 -0.006,0.008 0.003,0.0794 0.006,0.15882 0.008,0.23823 0.0106,-0.0119 0.023,-0.0186 0.0362,-0.0248 -0.0243,-0.0853 -0.0456,-0.16728 -0.0377,-0.2217 z m 0.0135,0.73433 c 0.0241,1.19155 0.0188,2.38334 0.0185,3.57497 h 0.0739 c 5e-5,-0.9219 0.003,-2.48264 -0.009,-3.55017 h -0.0217 c -0.0235,0 -0.0439,-0.009 -0.0615,-0.0248 z" />
    </clipPath>
  </defs>
  <sodipodi:namedview
     id="base"
     pagecolor="#ffffff"
     bordercolor="#666666"
     borderopacity="1.0"
     inkscape:pageopacity="0.0"
     inkscape:pageshadow="2"
     inkscape:zoom="0.29126532"
     inkscape:cx="615.82533"
     inkscape:cy="501.58554"
     inkscape:document-units="mm"
     inkscape:current-layer="layer1"
     inkscape:document-rotation="0"
     showgrid="false"
     inkscape:window-width="1252"
     inkscape:window-height="775"
     inkscape:window-x="0"
     inkscape:window-y="23"
     inkscape:window-maximized="0" />
  <metadata
     id="metadata5">
    <rdf:RDF>
      <cc:Work
         rdf:about="">
        <dc:format>image/svg+xml</dc:format>
        <dc:type
           rdf:resource="http://purl.org/dc/dcmitype/StillImage" />
        <dc:title></dc:title>
      </cc:Work>
    </rdf:RDF>
  </metadata>
  <g
     inkscape:label="Layer 1"
     inkscape:groupmode="layer"
     id="layer1">
    <g
       id="g2455"
       transform="matrix(0.9999611,0,0,1.1532513,3.6351712,-42.307202)">
      <g
         id="g2962"
         style="fill:#000000"
         transform="translate(3.359271,-2.4487384)">
        <g
           id="g2931"
           mask="url(#mask-powermask-path-effect2945)"
           inkscape:path-effect="#path-effect2945"
           style="fill:#000000">
          <g
             id="g2921"
             style="fill:#000000">
            <path
               style="fill:#000000;fill-rule:evenodd;stroke-width:0.264583"
               id="rect2870"
               width="9.2297592"
               height="142.64172"
               x="47.826935"
               y="95.335701"
               d="m 47.826935,95.335701 h 9.229759 V 237.97742 h -9.229759 z"
               sodipodi:type="rect" />
            <path
               style="fill:#000000;fill-rule:evenodd;stroke-width:0.264583"
               id="rect2870-8"
               width="9.2297592"
               height="142.64172"
               x="144.7394"
               y="95.335701"
               d="m 144.7394,95.335701 h 9.22975 V 237.97742 h -9.22975 z"
               sodipodi:type="rect" />
            <path
               style="fill:#000000;fill-rule:evenodd;stroke-width:0.225445"
               id="rect2870-0"
               width="9.2297592"
               height="103.56322"
               x="-238.02162"
               y="49.264248"
               transform="matrix(-4.7256728e-4,-0.99999989,0.9999996,-8.9649037e-4,0,0)"
               d="m -238.02162,49.264248 9.22976,0 V 152.82747 l -9.22976,0 z"
               sodipodi:type="rect" />
            <path
               style="fill:#000000;fill-rule:evenodd;stroke-width:0.225445"
               id="rect2870-0-0"
               width="9.2297592"
               height="103.56322"
               x="-104.67288"
               y="49.077374"
               transform="matrix(-4.72567e-4,-0.99999989,0.9999996,-8.9649036e-4,0,0)"
               d="m -104.67288,49.077374 h 9.229757 l 0,103.563216 -9.229757,0 z"
               sodipodi:type="rect" />
          </g>
          <ellipse
             style="fill:#000000;fill-rule:evenodd;stroke-width:0.264583"
             id="path2923"
             cx="55.608597"
             cy="103.87267"
             rx="17.83672"
             ry="15.038803" />
        </g>
      </g>
      <g
         id="g3272"
         transform="translate(-36.299116,8.1989892)">
        <rect
           style="fill:#0000ff;fill-rule:evenodd;stroke-width:0.232334"
           id="rect2965"
           width="9.0623922"
           height="55.808601"
           x="282.02374"
           y="166.26865"
           ry="2.27844"
           transform="matrix(0.78106345,0.11894948,-0.26389285,0.68622675,15.944131,-8.8102309)"
           clip-path="url(#clipPath3031)" />
        <rect
           style="fill:#0000ff;fill-rule:evenodd;stroke-width:0.264583"
           id="rect2967"
           width="4.6563005"
           height="7.5387716"
           x="274.13193"
           y="124.49258"
           ry="2.3281503"
           transform="matrix(0.75811523,0.20976723,-0.228171,0.6969673,15.944131,-8.8102309)"
           clip-path="url(#clipPath3042)" />
        <rect
           style="fill:#000000;fill-rule:evenodd;stroke-width:0.304153"
           id="rect2969"
           width="7.8397508"
           height="1.0797133"
           x="221.00856"
           y="97.404068"
           ry="0.53985667"
           transform="matrix(0.97497906,0.22229673,-0.25917683,0.96582989,0,0)" />
        <rect
           style="fill:#000000;fill-rule:evenodd;stroke-width:0.304152"
           id="rect2969-5"
           width="7.8397508"
           height="1.0797133"
           x="220.855"
           y="99.117783"
           ry="0.53985667"
           transform="matrix(0.97497906,0.22229673,-0.25917683,0.96582989,0,0)" />
        <rect
           style="fill:#000000;fill-rule:evenodd;stroke-width:0.220171"
           id="rect2991"
           width="0.89120847"
           height="2.3572071"
           x="236.32098"
           y="77.074875"
           ry="0.50090647"
           transform="matrix(0.95098449,0.30923857,-0.35907933,0.93330704,0,0)"
           inkscape:transform-center-x="20.811529"
           inkscape:transform-center-y="-3.1242089" />
        <rect
           style="fill:#000000;fill-rule:evenodd;stroke-width:0.220154"
           id="rect2991-4"
           width="0.89213341"
           height="2.3544161"
           x="227.60965"
           y="82.160545"
           ry="0.50031334"
           transform="matrix(0.95701845,0.29002706,-0.33752059,0.94131814,0,0)"
           inkscape:transform-center-x="20.873984"
           inkscape:transform-center-y="-2.6750526" />
        <rect
           style="fill:#000000;fill-rule:evenodd;stroke-width:0.264583"
           id="rect3008"
           width="4.8451791"
           height="0.59632975"
           x="262.86725"
           y="150.93982"
           ry="0.29816487"
           transform="matrix(0.77376791,0.15406573,-0.16758258,0.71135747,15.944131,-8.8102309)"
           inkscape:transform-center-x="0.12158612"
           inkscape:transform-center-y="1.4651466"
           clip-path="url(#clipPath3053)" />
        <rect
           style="fill:#000000;fill-rule:evenodd;stroke-width:0.207188"
           id="rect3010"
           width="1.9680378"
           height="13.151888"
           x="235.80225"
           y="52.369354"
           ry="0.45363626"
           transform="matrix(0.91431252,0.40500941,-0.33971213,0.94052946,0,0)"
           inkscape:transform-center-x="31.919706"
           inkscape:transform-center-y="6.2506975" />
        <rect
           style="fill:#0000ff;fill-rule:evenodd;stroke-width:0.268929"
           id="rect3016"
           width="7.0736632"
           height="9.9812222"
           x="230.38141"
           y="108.24544"
           ry="0.46333802"
           transform="matrix(0.94896569,0.31537932,-0.36593959,0.93063861,0,0)" />
        <path
           sodipodi:type="star"
           style="opacity:0.92;fill:#000000;fill-opacity:1;stroke:#000000;stroke-width:0.264583;stroke-linejoin:bevel;stroke-miterlimit:4;stroke-dasharray:none;paint-order:stroke fill markers"
           id="path3020"
           sodipodi:sides="5"
           sodipodi:cx="245.1055"
           sodipodi:cy="93.851868"
           sodipodi:r1="37.994804"
           sodipodi:r2="11.250791"
           sodipodi:arg1="1.3808081"
           sodipodi:arg2="2.0405997"
           inkscape:flatsided="false"
           inkscape:rounded="0"
           inkscape:randomized="0"
           inkscape:transform-center-x="1.3319238"
           inkscape:transform-center-y="-0.6477468"
           clip-path="url(#clipPath3162)"
           transform="matrix(0.61106833,0.36605988,-0.40924533,0.6159186,71.43136,27.239391)"
           d="m 252.28072,131.16301 -12.26858,-27.27929 -28.17438,8.32196 22.15295,-20.09787 -16.62102,-24.223804 25.95985,14.858125 17.90203,-23.293099 -6.10889,29.280698 27.68509,9.827878 -29.73535,3.238342 z" />
      </g>
      <rect
         style="fill:#0000ff;fill-rule:evenodd;stroke-width:0.264583"
         id="rect3182"
         width="39.212215"
         height="3.2229216"
         x="90.519852"
         y="132.67694"
         ry="0.6898005" />
      <rect
         style="fill:#0000ff;fill-rule:evenodd;stroke-width:0.322478"
         id="rect3182-6"
         width="58.250153"
         height="3.2229216"
         x="71.481918"
         y="147.03387"
         ry="0.6898005" />
      <rect
         style="fill:#0000ff;fill-rule:evenodd;stroke-width:0.322477"
         id="rect3182-6-9"
         width="58.250156"
         height="3.2229216"
         x="71.481918"
         y="161.39079"
         ry="0.6898005" />
      <rect
         style="fill:#0000ff;fill-rule:evenodd;stroke-width:0.322477"
         id="rect3182-6-5"
         width="58.250156"
         height="3.2229216"
         x="71.481918"
         y="175.74771"
         ry="0.6898005" />
      <rect
         style="fill:#0000ff;fill-rule:evenodd;stroke-width:0.322477"
         id="rect3182-6-0"
         width="58.250156"
         height="3.2229216"
         x="71.481918"
         y="190.10464"
         ry="0.6898005" />
      <rect
         style="fill:#0000ff;fill-rule:evenodd;stroke-width:0.322477"
         id="rect3182-6-3"
         width="58.250156"
         height="3.2229216"
         x="71.481918"
         y="204.46156"
         ry="0.6898005" />
    </g>
  </g>
</svg>
