<?xml version="1.0" encoding="UTF-8" standalone="no"?>
<svg
   xmlns:dc="http://purl.org/dc/elements/1.1/"
   xmlns:cc="http://creativecommons.org/ns#"
   xmlns:rdf="http://www.w3.org/1999/02/22-rdf-syntax-ns#"
   xmlns:svg="http://www.w3.org/2000/svg"
   xmlns="http://www.w3.org/2000/svg"
   xmlns:sodipodi="http://sodipodi.sourceforge.net/DTD/sodipodi-0.dtd"
   xmlns:inkscape="http://www.inkscape.org/namespaces/inkscape"
   width="210mm"
   height="297mm"
   viewBox="0 0 210 297"
   version="1.1"
   id="svg8"
   inkscape:version="1.0.1 (c497b03c, 2020-09-10)"
   sodipodi:docname="Lease.svg">
  <defs
     id="defs2" />
  <sodipodi:namedview
     id="base"
     pagecolor="#ffffff"
     bordercolor="#666666"
     borderopacity="1.0"
     inkscape:pageopacity="0.0"
     inkscape:pageshadow="2"
     inkscape:zoom="0.44100067"
     inkscape:cx="221.86503"
     inkscape:cy="498.51797"
     inkscape:document-units="mm"
     inkscape:current-layer="g1311"
     inkscape:document-rotation="0"
     showgrid="false"
     inkscape:window-width="1252"
     inkscape:window-height="775"
     inkscape:window-x="0"
     inkscape:window-y="23"
     inkscape:window-maximized="0" />
  <metadata
     id="metadata5">
    <rdf:RDF>
      <cc:Work
         rdf:about="">
        <dc:format>image/svg+xml</dc:format>
        <dc:type
           rdf:resource="http://purl.org/dc/dcmitype/StillImage" />
        <dc:title></dc:title>
      </cc:Work>
    </rdf:RDF>
  </metadata>
  <g
     inkscape:label="Layer 1"
     inkscape:groupmode="layer"
     id="layer1">
    <g
       id="g1311">
      <g
         id="g9086">
        <g
           id="g1438">
          <rect
             style="fill:#000000;fill-rule:evenodd;stroke-width:0.274849"
             id="rect1254"
             width="107.88535"
             height="27.804064"
             x="49.100796"
             y="158.54233"
             ry="7.690486" />
          <rect
             style="fill:#000000;fill-rule:evenodd;stroke-width:0.271516"
             id="rect1256"
             width="56.691631"
             height="23.071457"
             x="64.562149"
             y="144.65384"
             ry="7.6904902" />
          <rect
             style="fill:#000000;fill-rule:evenodd;stroke-width:0.247501"
             id="rect1258"
             width="11.050009"
             height="9.3116713"
             x="0.41000411"
             y="167.89285"
             transform="matrix(0.91172228,-0.41080709,0.32358579,0.94619884,0,0)"
             inkscape:transform-center-x="22.479883"
             inkscape:transform-center-y="-21.888307" />
          <rect
             style="fill:#000000;fill-rule:evenodd;stroke-width:0.24804"
             id="rect1260"
             width="26.664465"
             height="12.434438"
             x="179.78694"
             y="33.682014"
             transform="matrix(0.75665724,0.65381177,-0.54840561,0.83621248,0,0)"
             inkscape:transform-center-x="12.538202"
             inkscape:transform-center-y="-22.259219" />
          <circle
             style="fill:#ffffff;fill-rule:evenodd;stroke-width:0.265066"
             id="path1268"
             cx="75.953354"
             cy="184.44579"
             r="11.5" />
          <ellipse
             style="fill:#ffffff;fill-rule:evenodd;stroke-width:0.265065"
             id="path1268-8"
             cx="131.52399"
             cy="184.44579"
             rx="11.5"
             ry="11.500001" />
          <circle
             style="fill:#000000;fill-rule:evenodd;stroke-width:0.262744"
             id="path1289"
             cx="76.029991"
             cy="184.41652"
             r="10" />
          <circle
             style="fill:#000000;fill-rule:evenodd;stroke-width:0.262744"
             id="path1289-0"
             cx="131.68921"
             cy="184.41611"
             r="10" />
          <rect
             style="fill:#ffffff;fill-rule:evenodd;stroke-width:0.277376"
             id="rect1313"
             width="16.598593"
             height="1.6522242"
             x="178.72597"
             y="46.599648"
             ry="0.82611209"
             rx="3.6207583"
             transform="matrix(0.58716645,0.80946622,-0.72293121,0.69092001,0,0)" />
          <rect
             style="fill:#ffffff;fill-rule:evenodd;stroke-width:0.311934"
             id="rect1313-9"
             width="15.231655"
             height="2.2770951"
             x="68.513725"
             y="183.57623"
             ry="1.1385475"
             rx="3.3225794" />
          <rect
             style="fill:#ffffff;fill-rule:evenodd;stroke-width:0.276108"
             id="rect1313-96"
             width="17.483587"
             height="1.554276"
             x="175.35217"
             y="-77.333359"
             ry="0.77713799"
             rx="3.813808"
             transform="matrix(-0.00320227,0.99999487,-0.9999911,-0.00421915,0,0)" />
          <rect
             style="fill:#ffffff;fill-rule:evenodd;stroke-width:0.277376"
             id="rect1313-3"
             width="16.598593"
             height="1.6522242"
             x="-89.607056"
             y="-172.28206"
             ry="0.82611209"
             rx="3.6207583"
             transform="matrix(0.58716645,-0.80946622,-0.72293121,-0.69092001,0,0)" />
          <rect
             style="fill:#ffffff;fill-rule:evenodd;stroke-width:0.277376"
             id="rect1313-2"
             width="16.598593"
             height="1.6522242"
             x="217.58105"
             y="1.6152126"
             ry="0.82611209"
             rx="3.6207583"
             transform="matrix(0.58716645,0.80946622,-0.72293121,0.69092001,0,0)" />
          <rect
             style="fill:#ffffff;fill-rule:evenodd;stroke-width:0.311933"
             id="rect1313-9-5"
             width="15.231655"
             height="2.2770951"
             x="123.84877"
             y="183.94748"
             ry="1.1385475"
             rx="3.3225796" />
          <rect
             style="fill:#ffffff;fill-rule:evenodd;stroke-width:0.276108"
             id="rect1313-96-0"
             width="17.483587"
             height="1.554276"
             x="175.48997"
             y="-132.66934"
             ry="0.77713799"
             rx="3.813808"
             transform="matrix(-0.00320227,0.99999487,-0.9999911,-0.00421915,0,0)" />
          <rect
             style="fill:#ffffff;fill-rule:evenodd;stroke-width:0.277376"
             id="rect1313-3-4"
             width="16.598593"
             height="1.6522242"
             x="-51.293674"
             y="-217.70645"
             ry="0.82611209"
             rx="3.6207583"
             transform="matrix(0.58716645,-0.80946622,-0.72293121,-0.69092001,0,0)" />
        </g>
        <rect
           style="fill:#cccccc;fill-rule:evenodd;stroke-width:0.243588"
           id="rect8851"
           width="17.351717"
           height="9.6708088"
           x="69.419212"
           y="154.7177"
           transform="rotate(-0.67895706)" />
        <rect
           style="fill:#cccccc;fill-rule:evenodd;stroke-width:0.291908"
           id="rect8851-5"
           width="22.251165"
           height="10.830179"
           x="-98.319855"
           y="-163.3131"
           transform="matrix(-0.99970852,-0.02414272,-0.13753333,-0.99049714,0,0)" />
        <circle
           style="fill:#ffffff;fill-rule:evenodd;stroke-width:0.259695"
           id="path8872"
           cx="70.559319"
           cy="149.20844"
           r="4" />
        <circle
           style="fill:#000000;fill-rule:evenodd;stroke-width:0.242167"
           id="path8874"
           cx="70.600327"
           cy="149.24199"
           r="3" />
        <g
           id="g8981">
          <rect
             style="fill:#000000;fill-rule:evenodd;stroke-width:0.320775"
             id="rect8880"
             width="41.695354"
             height="6.9326925"
             x="57.708534"
             y="139.02647"
             ry="1.1046627"
             transform="matrix(0.97191446,-0.2353344,0.19922231,0.97995432,0,0)" />
          <rect
             style="fill:#ffffff;fill-rule:evenodd;stroke-width:0.240868"
             id="rect8882"
             width="3.6348443"
             height="3.6811357"
             x="153.16866"
             y="25.448185"
             ry="0"
             transform="matrix(0.7491597,0.66238943,-0.53870389,0.84249518,0,0)" />
          <rect
             style="fill:#ffffff;fill-rule:evenodd;stroke-width:0.240868"
             id="rect8882-5"
             width="3.6348443"
             height="3.6811357"
             x="156.35226"
             y="22.121822"
             ry="0"
             transform="matrix(0.7491597,0.66238943,-0.53870389,0.84249518,0,0)" />
          <rect
             style="fill:#ffffff;fill-rule:evenodd;stroke-width:0.240868"
             id="rect8882-1"
             width="3.6348443"
             height="3.6811357"
             x="159.02852"
             y="18.446873"
             ry="0"
             transform="matrix(0.7491597,0.66238943,-0.53870389,0.84249518,0,0)" />
          <rect
             style="fill:#ffffff;fill-rule:evenodd;stroke-width:0.240868"
             id="rect8882-4"
             width="3.6348443"
             height="3.6811357"
             x="161.90332"
             y="14.804482"
             ry="0"
             transform="matrix(0.7491597,0.66238943,-0.53870389,0.84249518,0,0)" />
          <rect
             style="fill:#ffffff;fill-rule:evenodd;stroke-width:0.240868"
             id="rect8882-4-1"
             width="3.6348443"
             height="3.6811357"
             x="165.71591"
             y="10.8304"
             ry="0"
             transform="matrix(0.7491597,0.66238943,-0.53870389,0.84249518,0,0)" />
        </g>
        <rect
           style="fill:#000000;fill-rule:evenodd;stroke-width:0.307898"
           id="rect8987"
           width="23.934498"
           height="16.403873"
           x="37.670052"
           y="132.40007"
           ry="5.1194792"
           transform="matrix(0.98167201,-0.19057825,0.24720861,0.96896228,0,0)" />
        <circle
           style="fill:#ffffff;fill-rule:evenodd;stroke-width:0.242167"
           id="path8874-7"
           cx="77.891029"
           cy="131.47771"
           r="3" />
        <path
           style="opacity:0.92;fill:#ffffff;stroke:#000000;stroke-width:3.23439;stroke-linejoin:bevel;paint-order:markers stroke fill"
           d="m 70.662804,148.73785 -0.808985,-0.61649 0.247267,-1.47407 c 0.613057,-3.6547 1.224191,-6.14263 2.084002,-8.48398 0.789501,-2.1499 1.886999,-4.13019 3.107391,-5.6069 0.482839,-0.58425 1.71977,-1.82818 1.805776,-1.816 0.03313,0.005 0.404495,0.27138 0.825232,0.59276 l 0.764994,0.58428 -0.389314,0.27929 c -1.707408,1.22487 -3.255573,3.08433 -4.388547,5.27098 -0.432868,0.83543 -1.135181,2.60652 -1.408993,3.5532 -0.710252,2.4556 -1.03045,4.96433 -1.029878,8.06907 l 5.2e-5,0.2643 z"
           id="path9051"
           inkscape:transform-center-x="21.45546"
           inkscape:transform-center-y="-6.7928126" />
      </g>
    </g>
  </g>
</svg>
