<?xml version="1.0" encoding="UTF-8" standalone="no"?>
<svg
   xmlns:dc="http://purl.org/dc/elements/1.1/"
   xmlns:cc="http://creativecommons.org/ns#"
   xmlns:rdf="http://www.w3.org/1999/02/22-rdf-syntax-ns#"
   xmlns:svg="http://www.w3.org/2000/svg"
   xmlns="http://www.w3.org/2000/svg"
   xmlns:sodipodi="http://sodipodi.sourceforge.net/DTD/sodipodi-0.dtd"
   xmlns:inkscape="http://www.inkscape.org/namespaces/inkscape"
   width="210mm"
   height="297mm"
   viewBox="0 0 210 297"
   version="1.1"
   id="svg5263"
   inkscape:version="1.0.1 (c497b03c, 2020-09-10)"
   sodipodi:docname="Supplier_black.svg">
  <defs
     id="defs5257">
    <inkscape:path-effect
       effect="powermask"
       id="path-effect6004"
       is_visible="true"
       lpeversion="1"
       uri="#mask-powermask-path-effect6004"
       invert="false"
       hide_mask="false"
       background="true"
       background_color="#ffffffff" />
    <mask
       maskUnits="userSpaceOnUse"
       id="mask-powermask-path-effect6004">
      <path
         id="mask-powermask-path-effect6004_box"
         style="fill:#ffffff;fill-opacity:1"
         d="m 148.04472,161.76752 h 52.31689 v 54.60402 h -52.31689 z" />
      <rect
         style="fill:#0000ff;fill-rule:evenodd;stroke-width:0.264583"
         id="rect6002"
         width="40.405987"
         height="40.024796"
         x="154.33632"
         y="168.99683"
         rx="14.329013"
         ry="0.12616815"
         d="m 168.66533,168.99683 h 11.74796 c 7.93828,0 14.32902,0.0563 14.32902,0.12616 v 39.77246 c 0,0.0699 -6.39074,0.12617 -14.32902,0.12617 h -11.74796 c -7.93827,0 -14.32901,-0.0563 -14.32901,-0.12617 v -39.77246 c 0,-0.0699 6.39074,-0.12616 14.32901,-0.12616 z" />
    </mask>
    <filter
       id="mask-powermask-path-effect6004_inverse"
       inkscape:label="filtermask-powermask-path-effect6004"
       style="color-interpolation-filters:sRGB"
       height="100"
       width="100"
       x="-50"
       y="-50">
      <feColorMatrix
         id="mask-powermask-path-effect6004_primitive1"
         values="1"
         type="saturate"
         result="fbSourceGraphic" />
      <feColorMatrix
         id="mask-powermask-path-effect6004_primitive2"
         values="-1 0 0 0 1 0 -1 0 0 1 0 0 -1 0 1 0 0 0 1 0 "
         in="fbSourceGraphic" />
    </filter>
  </defs>
  <sodipodi:namedview
     id="base"
     pagecolor="#ffffff"
     bordercolor="#666666"
     borderopacity="1.0"
     inkscape:pageopacity="0.0"
     inkscape:pageshadow="2"
     inkscape:zoom="0.55396139"
     inkscape:cx="380.34299"
     inkscape:cy="688.20304"
     inkscape:document-units="mm"
     inkscape:current-layer="layer1"
     inkscape:document-rotation="0"
     showgrid="false"
     inkscape:window-width="1252"
     inkscape:window-height="775"
     inkscape:window-x="0"
     inkscape:window-y="23"
     inkscape:window-maximized="0" />
  <metadata
     id="metadata5260">
    <rdf:RDF>
      <cc:Work
         rdf:about="">
        <dc:format>image/svg+xml</dc:format>
        <dc:type
           rdf:resource="http://purl.org/dc/dcmitype/StillImage" />
        <dc:title></dc:title>
      </cc:Work>
    </rdf:RDF>
  </metadata>
  <g
     inkscape:label="Layer 1"
     inkscape:groupmode="layer"
     id="layer1">
    <path
       style="fill:#000000;fill-rule:evenodd;stroke-width:0.330843"
       id="path5942"
       sodipodi:type="arc"
       sodipodi:cx="76.922676"
       sodipodi:cy="-212.6274"
       sodipodi:rx="30.982903"
       sodipodi:ry="35.155117"
       sodipodi:start="0"
       sodipodi:end="3.1415927"
       sodipodi:arc-type="slice"
       transform="scale(1,-1)"
       d="m 107.90558,-212.6274 a 30.982903,35.155117 0 0 1 -15.491453,30.44523 30.982903,35.155117 0 0 1 -30.982903,0 30.982903,35.155117 0 0 1 -15.49145,-30.44523 h 30.982902 z" />
    <g
       id="g5028">
      <ellipse
         style="fill:#cccccc;fill-rule:evenodd;stroke:#000040;stroke-width:0.170674;stroke-opacity:1"
         id="path5830"
         ry="31.303392"
         rx="22.318567"
         cy="147.81804"
         cx="76.426537" />
      <path
         style="opacity:0.92;fill:#cccccc;fill-opacity:1;stroke:#000040;stroke-width:0.053479;stroke-linejoin:bevel;stroke-opacity:1;paint-order:stroke markers fill"
         d="m 68.79842,178.16265 c 0.01466,0.22517 0.03739,1.05134 0.05054,1.83592 0.01313,0.78459 0.03533,1.75479 0.04933,2.156 l 0.02541,0.72947 h 7.118991 7.118992 v -2.39222 c 0,-2.13259 -0.03026,-2.5114 -0.07054,-2.432 -0.07538,0.14859 -4.641056,2.06966 -10.720645,0.8108 -1.920565,-0.39767 -3.254419,-1.0711 -3.339643,-1.08255 l -0.259055,-0.0348 z"
         id="path5844"
         sodipodi:nodetypes="ssscccsssscs" />
      <path
         style="opacity:0.92;fill:#000000;fill-opacity:1;stroke:#000040;stroke-width:0.103938;stroke-linejoin:bevel;stroke-opacity:1;paint-order:stroke markers fill"
         d="m 55.376876,141.86292 c 0.04322,-0.11226 0.139807,-1.4877 0.214728,-3.05664 0.07491,-1.56893 0.166719,-2.97536 0.203978,-3.1254 l 0.06775,-0.2728 20.468132,-1.91924 21.003146,1.91924 -0.08748,3.0794 c -0.04803,1.69367 -0.109775,3.09399 -0.1371,3.11181 -0.06972,0.0454 -7.102126,-1.5737 -22.243654,-1.47576 -7.050465,0.0457 -19.209701,1.85371 -19.336872,1.88554 -0.193926,0.0485 -0.218549,0.025 -0.152699,-0.14615 z"
         id="path5846"
         sodipodi:nodetypes="ssscccsssss" />
      <ellipse
         style="fill:#000000;fill-rule:evenodd;stroke:#000040;stroke-width:0.194073;stroke-opacity:1"
         id="path5850"
         cx="65.122009"
         cy="147.17567"
         rx="2.0156112"
         ry="2.0647328" />
      <ellipse
         style="fill:#000000;fill-rule:evenodd;stroke:#000040;stroke-width:0.194073;stroke-opacity:1"
         id="path5850-7"
         cx="85.870949"
         cy="147.17567"
         rx="2.0156114"
         ry="2.0647328" />
      <ellipse
         style="fill:#000000;fill-rule:evenodd;stroke:#000040;stroke-width:0.194073;stroke-opacity:1"
         id="path5867"
         cx="75.792892"
         cy="156.82625"
         rx="3.2012651"
         ry="0.61941993" />
      <rect
         style="fill:#000000;fill-rule:evenodd;stroke:#000040;stroke-width:0.145554;stroke-opacity:1"
         id="rect5869"
         width="22.52742"
         height="1.8582598"
         x="65.003448"
         y="163.58908"
         ry="0.9291299"
         rx="11.26371" />
      <path
         style="fill:#000000;fill-rule:evenodd;stroke:#000040;stroke-width:0.444246;stroke-opacity:1"
         id="path5871"
         sodipodi:type="arc"
         sodipodi:cx="76.331467"
         sodipodi:cy="-135.29976"
         sodipodi:rx="20.134563"
         sodipodi:ry="19.924675"
         sodipodi:start="0"
         sodipodi:end="3.1415927"
         sodipodi:arc-type="slice"
         transform="scale(1,-1)"
         d="m 96.46603,-135.29976 a 20.134563,19.924675 0 0 1 -10.067282,17.25528 20.134563,19.924675 0 0 1 -20.134564,0 20.134563,19.924675 0 0 1 -10.067281,-17.25528 h 20.134564 z" />
      <rect
         style="fill:#cccccc;fill-rule:evenodd;stroke:#000040;stroke-width:0.194074;stroke-opacity:1"
         id="rect5873"
         width="3.7165442"
         height="7.351016"
         x="113.57968"
         y="71.146507"
         rx="9.8075552"
         ry="1.8970356"
         transform="matrix(0.00739347,0.99997267,0.99998429,-0.00560538,0,0)"
         inkscape:transform-center-x="37.406232"
         inkscape:transform-center-y="-8.021501" />
      <path
         style="fill:#000000;fill-rule:evenodd;stroke:#000040;stroke-width:0.415762;stroke-opacity:1"
         id="path5892"
         sodipodi:type="arc"
         sodipodi:cx="76.331467"
         sodipodi:cy="-133.48883"
         sodipodi:rx="16.116657"
         sodipodi:ry="15.838506"
         sodipodi:start="0"
         sodipodi:end="3.1415927"
         sodipodi:arc-type="slice"
         transform="scale(1,-1)"
         d="m 92.448124,-133.48883 a 16.116657,15.838506 0 0 1 -8.058329,13.71655 16.116657,15.838506 0 0 1 -16.116657,0 16.116657,15.838506 0 0 1 -8.058329,-13.71655 h 16.116658 z" />
      <path
         style="fill:#000000;fill-rule:evenodd;stroke:#000040;stroke-width:0.194086;stroke-opacity:1"
         id="path5894"
         sodipodi:type="arc"
         sodipodi:cx="144.23636"
         sodipodi:cy="-63.899151"
         sodipodi:rx="3.0988026"
         sodipodi:ry="2.3703182"
         sodipodi:start="0"
         sodipodi:end="3.1415927"
         sodipodi:arc-type="slice"
         transform="matrix(-0.06740403,0.99772576,-0.99869091,-0.05115145,0,0)"
         inkscape:transform-center-x="9.6532226"
         inkscape:transform-center-y="1.3950415"
         d="m 147.33516,-63.899151 a 3.0988026,2.3703182 0 0 1 -1.5494,2.052756 3.0988026,2.3703182 0 0 1 -3.0988,0 3.0988026,2.3703182 0 0 1 -1.5494,-2.052756 h 3.0988 z" />
      <path
         style="fill:#000000;fill-rule:evenodd;stroke:#000040;stroke-width:0.194086;stroke-opacity:1"
         id="path5894-8"
         sodipodi:type="arc"
         sodipodi:cx="-141.94801"
         sodipodi:cy="108.48779"
         sodipodi:rx="3.0988023"
         sodipodi:ry="2.3703182"
         sodipodi:start="0"
         sodipodi:end="3.1415927"
         sodipodi:arc-type="slice"
         transform="matrix(0.06740403,-0.99772576,0.99869091,0.05115145,0,0)"
         inkscape:transform-center-x="-9.6532152"
         inkscape:transform-center-y="-1.3950532"
         d="m -138.84921,108.48779 a 3.0988023,2.3703182 0 0 1 -1.5494,2.05276 3.0988023,2.3703182 0 0 1 -3.0988,0 3.0988023,2.3703182 0 0 1 -1.54941,-2.05276 h 3.09881 z" />
      <rect
         style="fill:#cccccc;fill-rule:evenodd;stroke-width:0.200689"
         id="rect5944"
         width="6.8752799"
         height="28.0068"
         x="62.048412"
         y="184.81555"
         rx="11.26372"
         ry="1.7663336" />
      <rect
         style="fill:#cccccc;fill-rule:evenodd;stroke-width:0.200689"
         id="rect5944-6"
         width="6.8752804"
         height="28.0068"
         x="83.161682"
         y="184.75378"
         rx="11.26372"
         ry="1.7663336" />
      <rect
         style="fill:#cccccc;fill-rule:evenodd;stroke-width:0.200691"
         id="rect5944-0"
         width="7.7259045"
         height="24.923338"
         x="203.85538"
         y="-90.583534"
         rx="12.657291"
         ry="1.5718657"
         transform="matrix(-0.01041019,0.99994581,-0.9999136,-0.01314541,0,0)"
         inkscape:transform-center-x="9.4460208"
         inkscape:transform-center-y="9.7195535" />
      <path
         style="fill:#000000;fill-rule:evenodd;stroke-width:0.264583"
         id="rect5994"
         width="50.316891"
         height="52.604023"
         x="149.04472"
         y="162.76752"
         rx="14.329013"
         ry="0.12616815"
         mask="url(#mask-powermask-path-effect6004)"
         inkscape:path-effect="#path-effect6004"
         sodipodi:type="rect"
         transform="matrix(0.78607784,0,0,0.78007868,-5.8920175,44.309388)" />
      <rect
         style="fill:#000000;fill-rule:evenodd;stroke-width:0.296169"
         id="rect6013"
         width="17.0797"
         height="7.8990164"
         x="122.95485"
         y="176.90059"
         rx="11.26372"
         ry="0.20111269" />
      <rect
         style="fill:#cccccc;fill-rule:evenodd;stroke-width:0.244258"
         id="rect6015"
         width="11.086823"
         height="2.4797168"
         x="116.16548"
         y="172.93813"
         rx="11.26372"
         ry="0.13679197" />
      <rect
         style="fill:#cccccc;fill-rule:evenodd;stroke-width:0.238779"
         id="rect6017"
         width="3.8953705"
         height="3.5545571"
         x="129.74806"
         y="172.41156"
         rx="11.26372"
         ry="0.13072325" />
      <rect
         style="fill:#cccccc;fill-rule:evenodd;stroke-width:0.238779"
         id="rect6017-2"
         width="3.8953705"
         height="3.5545571"
         x="141.69839"
         y="172.41156"
         rx="11.26372"
         ry="0.13072325" />
      <rect
         style="fill:#cccccc;fill-rule:evenodd;stroke-width:0.238779"
         id="rect6017-3"
         width="3.8953705"
         height="3.5545571"
         x="136.13918"
         y="172.41156"
         rx="11.26372"
         ry="0.13072325" />
    </g>
  </g>
</svg>
