<?xml version="1.0" encoding="UTF-8" standalone="no"?>
<svg
   xmlns:dc="http://purl.org/dc/elements/1.1/"
   xmlns:cc="http://creativecommons.org/ns#"
   xmlns:rdf="http://www.w3.org/1999/02/22-rdf-syntax-ns#"
   xmlns:svg="http://www.w3.org/2000/svg"
   xmlns="http://www.w3.org/2000/svg"
   xmlns:sodipodi="http://sodipodi.sourceforge.net/DTD/sodipodi-0.dtd"
   xmlns:inkscape="http://www.inkscape.org/namespaces/inkscape"
   width="210mm"
   height="297mm"
   viewBox="0 0 210 297"
   version="1.1"
   id="svg5263"
   inkscape:version="1.0.1 (c497b03c, 2020-09-10)"
   sodipodi:docname="Suppliers.svg">
  <defs
     id="defs5257">
    <inkscape:path-effect
       effect="powermask"
       id="path-effect6004"
       is_visible="true"
       lpeversion="1"
       uri="#mask-powermask-path-effect6004"
       invert="false"
       hide_mask="false"
       background="true"
       background_color="#ffffffff" />
    <mask
       maskUnits="userSpaceOnUse"
       id="mask-powermask-path-effect6004">
      <path
         id="mask-powermask-path-effect6004_box"
         style="fill:#ffffff;fill-opacity:1"
         d="m 148.04472,161.76752 h 52.31689 v 54.60402 h -52.31689 z" />
      <rect
         style="fill:#0000ff;fill-rule:evenodd;stroke-width:0.264583"
         id="rect6002"
         width="40.405987"
         height="40.024796"
         x="154.33632"
         y="168.99683"
         rx="14.329013"
         ry="0.12616815"
         d="m 168.66533,168.99683 h 11.74796 c 7.93828,0 14.32902,0.0563 14.32902,0.12616 v 39.77246 c 0,0.0699 -6.39074,0.12617 -14.32902,0.12617 h -11.74796 c -7.93827,0 -14.32901,-0.0563 -14.32901,-0.12617 v -39.77246 c 0,-0.0699 6.39074,-0.12616 14.32901,-0.12616 z" />
    </mask>
    <filter
       id="mask-powermask-path-effect6004_inverse"
       inkscape:label="filtermask-powermask-path-effect6004"
       style="color-interpolation-filters:sRGB"
       height="100"
       width="100"
       x="-50"
       y="-50">
      <feColorMatrix
         id="mask-powermask-path-effect6004_primitive1"
         values="1"
         type="saturate"
         result="fbSourceGraphic" />
      <feColorMatrix
         id="mask-powermask-path-effect6004_primitive2"
         values="-1 0 0 0 1 0 -1 0 0 1 0 0 -1 0 1 0 0 0 1 0 "
         in="fbSourceGraphic" />
    </filter>
  </defs>
  <sodipodi:namedview
     id="base"
     pagecolor="#ffffff"
     bordercolor="#666666"
     borderopacity="1.0"
     inkscape:pageopacity="0.0"
     inkscape:pageshadow="2"
     inkscape:zoom="0.52063781"
     inkscape:cx="439.51755"
     inkscape:cy="623.0017"
     inkscape:document-units="mm"
     inkscape:current-layer="layer1"
     inkscape:document-rotation="0"
     showgrid="false"
     inkscape:window-width="1252"
     inkscape:window-height="775"
     inkscape:window-x="0"
     inkscape:window-y="23"
     inkscape:window-maximized="0" />
  <metadata
     id="metadata5260">
    <rdf:RDF>
      <cc:Work
         rdf:about="">
        <dc:format>image/svg+xml</dc:format>
        <dc:type
           rdf:resource="http://purl.org/dc/dcmitype/StillImage" />
        <dc:title></dc:title>
      </cc:Work>
    </rdf:RDF>
  </metadata>
  <g
     inkscape:label="Layer 1"
     inkscape:groupmode="layer"
     id="layer1">
    <g
       id="g6158"
       transform="matrix(0.93639324,0,0,1.1734189,2.9220804,-15.927119)">
      <path
         style="fill:#999999;fill-rule:evenodd;stroke-width:0.355815"
         id="path5942"
         sodipodi:type="arc"
         sodipodi:cx="83.070053"
         sodipodi:cy="-204.49199"
         sodipodi:rx="37.130276"
         sodipodi:ry="33.930122"
         sodipodi:start="0"
         sodipodi:end="3.1415927"
         sodipodi:arc-type="slice"
         transform="scale(1,-1)"
         d="m 120.20033,-204.49199 a 37.130276,33.930122 0 0 1 -18.56514,29.38435 37.130276,33.930122 0 0 1 -37.130276,0 37.130276,33.930122 0 0 1 -18.565137,-29.38435 h 37.130276 z" />
      <g
         id="g5992"
         transform="matrix(0.96914947,0,0,1,1.4172663,0)">
        <g
           id="g5940"
           transform="matrix(1,0,0,0.77483808,0,20.679296)">
          <ellipse
             style="fill:#ffffff;fill-rule:evenodd;stroke:#000000;stroke-width:0.232683;stroke-opacity:1"
             id="path5830"
             ry="45.735119"
             rx="28.392313"
             cy="142.49701"
             cx="84.517616" />
          <path
             style="opacity:0.92;fill:#666666;fill-opacity:1;stroke:#000000;stroke-width:0.0729088;stroke-linejoin:bevel;paint-order:stroke markers fill"
             d="m 74.813597,186.83131 c 0.01865,0.32897 0.04756,1.53602 0.06429,2.68232 0.0167,1.14631 0.04495,2.5638 0.06275,3.14998 l 0.03233,1.06578 h 9.056344 9.056344 v -3.4951 c 0,-3.11578 -0.0385,-3.66922 -0.08974,-3.55324 -0.09589,0.21711 -5.904066,3.02384 -13.638147,1.18461 -2.443225,-0.58101 -4.140072,-1.5649 -4.248489,-1.58163 l -0.329553,-0.0508 z"
             id="path5844"
             sodipodi:nodetypes="ssscccsssscs" />
          <path
             style="opacity:0.92;fill:#666666;fill-opacity:1;stroke:#000000;stroke-width:0.1417;stroke-linejoin:bevel;paint-order:stroke markers fill"
             d="m 57.739533,133.79639 c 0.05498,-0.16396 0.177854,-2.17357 0.273164,-4.46582 0.0953,-2.29226 0.212089,-4.34709 0.259488,-4.5663 l 0.08619,-0.39857 26.038302,-2.80407 26.718913,2.80407 -0.11129,4.49909 c -0.0611,2.4745 -0.13965,4.5204 -0.17441,4.54643 -0.0887,0.0664 -9.03489,-2.29921 -28.297012,-2.15612 -8.969169,0.0667 -24.437404,2.70832 -24.599183,2.75482 -0.2467,0.0709 -0.278024,0.0365 -0.194254,-0.21353 z"
             id="path5846"
             sodipodi:nodetypes="ssscccsssss" />
          <ellipse
             style="fill:#000000;fill-rule:evenodd;stroke-width:0.264583"
             id="path5850"
             cx="70.136696"
             cy="141.55849"
             rx="2.564137"
             ry="3.0166316" />
          <ellipse
             style="fill:#000000;fill-rule:evenodd;stroke-width:0.264583"
             id="path5850-7"
             cx="96.532219"
             cy="141.55849"
             rx="2.5641372"
             ry="3.0166316" />
          <ellipse
             style="fill:#000000;fill-rule:evenodd;stroke-width:0.264583"
             id="path5867"
             cx="83.711533"
             cy="155.65822"
             rx="4.072453"
             ry="0.90498954" />
          <rect
             style="fill:#000000;fill-rule:evenodd;stroke-width:0.198437"
             id="rect5869"
             width="28.658003"
             height="2.7149687"
             x="69.985863"
             y="165.53893"
             ry="1.3574843"
             rx="14.329001" />
          <path
             style="fill:#000000;fill-rule:evenodd;stroke-width:0.605647"
             id="path5871"
             sodipodi:type="arc"
             sodipodi:cx="84.396675"
             sodipodi:cy="-124.20745"
             sodipodi:rx="25.613956"
             sodipodi:ry="29.110498"
             sodipodi:start="0"
             sodipodi:end="3.1415927"
             sodipodi:arc-type="slice"
             transform="scale(1,-1)"
             d="m 110.01063,-124.20745 a 25.613956,29.110498 0 0 1 -12.806977,25.210431 25.613956,29.110498 0 0 1 -25.613957,-1e-6 25.613956,29.110498 0 0 1 -12.806977,-25.21043 h 25.613956 z" />
          <rect
             style="fill:#000000;fill-rule:evenodd;stroke-width:0.264583"
             id="rect5873"
             width="5.4299374"
             height="9.3515587"
             x="92.392418"
             y="78.274376"
             rx="14.329013"
             ry="2.4133043"
             transform="matrix(0.00643764,0.99997928,0.99997928,-0.00643764,0,0)"
             inkscape:transform-center-x="37.406235"
             inkscape:transform-center-y="-6.9382533" />
          <path
             style="fill:#b3b3b3;fill-rule:evenodd;stroke-width:0.566815"
             id="path5892"
             sodipodi:type="arc"
             sodipodi:cx="84.396675"
             sodipodi:cy="-121.56163"
             sodipodi:rx="20.502623"
             sodipodi:ry="23.140491"
             sodipodi:start="0"
             sodipodi:end="3.1415927"
             sodipodi:arc-type="slice"
             transform="scale(1,-1)"
             d="m 104.8993,-121.56163 a 20.502623,23.140491 0 0 1 -10.251314,20.04025 20.502623,23.140491 0 0 1 -20.502623,0 20.502623,23.140491 0 0 1 -10.25131,-20.04025 h 20.502622 z" />
          <path
             style="fill:#000000;fill-rule:evenodd;stroke-width:0.264583"
             id="path5894"
             sodipodi:type="arc"
             sodipodi:cx="138.02124"
             sodipodi:cy="-64.322632"
             sodipodi:rx="4.5249476"
             sodipodi:ry="3.0166316"
             sodipodi:start="0"
             sodipodi:end="3.1415927"
             sodipodi:arc-type="slice"
             transform="rotate(93.366458)"
             inkscape:transform-center-x="9.653222"
             inkscape:transform-center-y="1.2066528"
             d="m 142.54619,-64.322632 a 4.5249476,3.0166316 0 0 1 -2.26248,2.61248 4.5249476,3.0166316 0 0 1 -4.52494,0 4.5249476,3.0166316 0 0 1 -2.26248,-2.61248 h 4.52495 z" />
          <path
             style="fill:#000000;fill-rule:evenodd;stroke-width:0.264583"
             id="path5894-8"
             sodipodi:type="arc"
             sodipodi:cx="-134.67973"
             sodipodi:cy="121.06922"
             sodipodi:rx="4.5249472"
             sodipodi:ry="3.0166316"
             sodipodi:start="0"
             sodipodi:end="3.1415927"
             sodipodi:arc-type="slice"
             transform="rotate(-86.633542)"
             inkscape:transform-center-x="-9.6532114"
             inkscape:transform-center-y="-1.2066608"
             d="m -130.15479,121.06922 a 4.5249472,3.0166316 0 0 1 -2.26247,2.61248 4.5249472,3.0166316 0 0 1 -4.52495,0 4.5249472,3.0166316 0 0 1 -2.26247,-2.61248 h 4.52495 z" />
        </g>
        <rect
           style="fill:#0000ff;fill-rule:evenodd;stroke-width:0.240839"
           id="rect5944"
           width="8.7463093"
           height="31.705372"
           x="66.226654"
           y="172.97479"
           rx="14.329013"
           ry="1.999595" />
        <rect
           style="fill:#0000ff;fill-rule:evenodd;stroke-width:0.240839"
           id="rect5944-6"
           width="8.7463102"
           height="31.705372"
           x="93.085655"
           y="172.90485"
           rx="14.329013"
           ry="1.999595" />
        <rect
           style="fill:#0000ff;fill-rule:evenodd;stroke-width:0.240839"
           id="rect5944-0"
           width="8.7463102"
           height="31.705372"
           x="194.68344"
           y="-102.10204"
           rx="14.329013"
           ry="1.999595"
           transform="rotate(90.67027)"
           inkscape:transform-center-x="9.4460241"
           inkscape:transform-center-y="11.400374" />
      </g>
      <path
         style="fill:#0000ff;fill-rule:evenodd;stroke-width:0.264583"
         id="rect5994"
         width="50.316891"
         height="52.604023"
         x="149.04472"
         y="162.76752"
         rx="14.329013"
         ry="0.12616815"
         mask="url(#mask-powermask-path-effect6004)"
         inkscape:path-effect="#path-effect6004"
         sodipodi:type="rect"
         transform="matrix(0.96914947,0,0,1,-18.162455,-11.179961)"
         d="m 163.37374,162.76752 h 21.65886 c 7.93827,0 14.32901,0.0563 14.32901,0.12617 v 52.35168 c 0,0.0699 -6.39074,0.12617 -14.32901,0.12617 h -21.65886 c -7.93828,0 -14.32902,-0.0563 -14.32902,-0.12617 v -52.35168 c 0,-0.0699 6.39074,-0.12617 14.32902,-0.12617 z" />
      <rect
         style="fill:#0000ff;fill-rule:evenodd;stroke-width:0.323073"
         id="rect6013"
         width="21.057434"
         height="7.6237717"
         x="140.69188"
         y="170.0101"
         rx="13.886955"
         ry="0.19410484" />
      <rect
         style="fill:#000000;fill-rule:evenodd;stroke-width:0.266447"
         id="rect6015"
         width="13.668862"
         height="2.3933098"
         x="131.92535"
         y="153.83612"
         rx="13.886955"
         ry="0.13202541" />
      <rect
         style="fill:#000000;fill-rule:evenodd;stroke-width:0.26047"
         id="rect6017"
         width="4.8025732"
         height="3.4306972"
         x="148.67122"
         y="153.3279"
         rx="13.886955"
         ry="0.12616815" />
      <rect
         style="fill:#000000;fill-rule:evenodd;stroke-width:0.26047"
         id="rect6017-2"
         width="4.8025732"
         height="3.4306972"
         x="163.40469"
         y="153.3279"
         rx="13.886955"
         ry="0.12616815" />
      <rect
         style="fill:#000000;fill-rule:evenodd;stroke-width:0.26047"
         id="rect6017-3"
         width="4.8025732"
         height="3.4306972"
         x="156.55078"
         y="153.3279"
         rx="13.886955"
         ry="0.12616815" />
    </g>
  </g>
</svg>
